<svg width="32" height="32" viewBox="0 0 32 32" fill="none" xmlns="http://www.w3.org/2000/svg">
<path d="M29.425 26.25C27.6718 23.2271 24.95 20.8841 21.7 19.6C23.2951 18.4037 24.4734 16.7358 25.0679 14.8326C25.6624 12.9294 25.643 10.8874 25.0125 8.99584C24.382 7.10427 23.1723 5.45904 21.5547 4.2932C19.9372 3.12735 17.9939 2.5 16 2.5C14.0061 2.5 12.0628 3.12735 10.4452 4.2932C8.82771 5.45904 7.61801 7.10427 6.98749 8.99584C6.35697 10.8874 6.33759 12.9294 6.9321 14.8326C7.52662 16.7358 8.70488 18.4037 10.3 19.6C7.04995 20.8841 4.32818 23.2271 2.57498 26.25C2.37607 26.5948 2.32227 27.0045 2.42541 27.3889C2.52856 27.7734 2.7802 28.1011 3.12498 28.3C3.46976 28.4989 3.87944 28.5527 4.26389 28.4496C4.64834 28.3464 4.97607 28.0948 5.17498 27.75C6.27213 25.8499 7.85008 24.2721 9.75026 23.1751C11.6504 22.0781 13.8059 21.5005 16 21.5005C18.1941 21.5005 20.3495 22.0781 22.2497 23.1751C24.1499 24.2721 25.7278 25.8499 26.825 27.75C26.9577 27.9773 27.1474 28.1661 27.3754 28.2976C27.6034 28.4292 27.8618 28.4989 28.125 28.5C28.3884 28.5021 28.6476 28.433 28.875 28.3C29.0458 28.2016 29.1955 28.0705 29.3156 27.9142C29.4357 27.7578 29.5238 27.5794 29.5749 27.389C29.626 27.1986 29.639 27 29.6133 26.8046C29.5876 26.6091 29.5236 26.4207 29.425 26.25ZM9.49998 12C9.49998 10.7144 9.8812 9.45771 10.5954 8.38879C11.3097 7.31987 12.3248 6.48675 13.5125 5.99478C14.7003 5.50281 16.0072 5.37409 17.2681 5.6249C18.5289 5.8757 19.6871 6.49476 20.5962 7.40381C21.5052 8.31285 22.1243 9.47104 22.3751 10.7319C22.6259 11.9928 22.4972 13.2997 22.0052 14.4874C21.5132 15.6752 20.6801 16.6903 19.6112 17.4046C18.5423 18.1188 17.2856 18.5 16 18.5C14.2761 18.5 12.6228 17.8152 11.4038 16.5962C10.1848 15.3772 9.49998 13.7239 9.49998 12Z" fill="#BEC2C9"/>
</svg>
