<svg width="35" height="35" viewBox="0 0 35 35" fill="none" xmlns="http://www.w3.org/2000/svg">
<path d="M5.83332 29.1667C5.03124 29.1667 4.34485 28.8813 3.77416 28.3106C3.20249 27.739 2.91666 27.0521 2.91666 26.25V20.4167C3.71874 20.4167 4.40561 20.1308 4.97728 19.5592C5.54798 18.9885 5.83332 18.3021 5.83332 17.5C5.83332 16.6979 5.54798 16.0111 4.97728 15.4394C4.40561 14.8687 3.71874 14.5833 2.91666 14.5833V8.75001C2.91666 7.94793 3.20249 7.26154 3.77416 6.69084C4.34485 6.11918 5.03124 5.83334 5.83332 5.83334H29.1667C29.9687 5.83334 30.6556 6.11918 31.2273 6.69084C31.798 7.26154 32.0833 7.94793 32.0833 8.75001V26.25C32.0833 27.0521 31.798 27.739 31.2273 28.3106C30.6556 28.8813 29.9687 29.1667 29.1667 29.1667H5.83332ZM5.83332 26.25H29.1667V8.75001H5.83332V12.4688C6.73263 13.0035 7.44381 13.7142 7.96686 14.6008C8.48895 15.4885 8.74999 16.4549 8.74999 17.5C8.74999 18.5451 8.48895 19.5115 7.96686 20.3992C7.44381 21.2858 6.73263 21.9965 5.83332 22.5313V26.25ZM12.9062 22.8229L25.8854 19.3958C26.25 19.2986 26.5232 19.0736 26.705 18.7206C26.8878 18.3687 26.9305 18.0104 26.8333 17.6458C26.7361 17.2813 26.5232 17.0076 26.1946 16.8248C25.8669 16.643 25.5208 16.6007 25.1562 16.6979L21.5833 17.6458L15.75 12.1771L13.7083 12.6875L17.2083 18.8125L13.7083 19.6875L11.8854 18.3021L10.5 18.6667L12.9062 22.8229Z" fill="#BEC2C9"/>
</svg>
