<svg width="20" height="20" viewBox="0 0 20 20" fill="none" xmlns="http://www.w3.org/2000/svg">
<path d="M13.3333 4.16667V3.33334C13.3333 2.89131 13.1577 2.46739 12.8452 2.15483C12.5326 1.84227 12.1087 1.66667 11.6666 1.66667H8.33331C7.89129 1.66667 7.46736 1.84227 7.1548 2.15483C6.84224 2.46739 6.66665 2.89131 6.66665 3.33334V4.16667C5.78259 4.16667 4.93474 4.51786 4.30962 5.14298C3.6845 5.7681 3.33331 6.61595 3.33331 7.5V16.6667C3.33331 17.1087 3.50891 17.5326 3.82147 17.8452C4.13403 18.1577 4.55795 18.3333 4.99998 18.3333H15C15.442 18.3333 15.8659 18.1577 16.1785 17.8452C16.4911 17.5326 16.6666 17.1087 16.6666 16.6667V7.5C16.6666 6.61595 16.3155 5.7681 15.6903 5.14298C15.0652 4.51786 14.2174 4.16667 13.3333 4.16667ZM8.33331 3.33334H11.6666V4.16667H8.33331V3.33334ZM9.99998 7.5L11.6666 9.16667L9.99998 10.8333L8.33331 9.16667L9.99998 7.5ZM15 16.6667H4.99998V13.3333H6.66665V15H7.49998V13.3333H15V16.6667ZM15 12.5H4.99998V7.5C4.99998 7.05798 5.17557 6.63405 5.48813 6.32149C5.8007 6.00893 6.22462 5.83334 6.66665 5.83334H13.3333C13.7753 5.83334 14.1993 6.00893 14.5118 6.32149C14.8244 6.63405 15 7.05798 15 7.5V12.5Z" fill="black"/>
</svg>
