<svg width="715" height="680" viewBox="0 0 715 680" fill="none" xmlns="http://www.w3.org/2000/svg">
<path d="M704.443 285.328L693.537 282.229C692.37 275.761 691.089 269.287 689.568 262.927C672.708 190.864 632.828 126.247 575.964 78.8735C519.1 31.5041 448.344 3.95213 374.417 0.394793C300.491 -3.16774 227.417 17.4575 166.257 59.1441C105.107 100.832 59.1999 161.311 35.4972 231.424C35.117 232.554 35.4764 233.804 36.393 234.56C37.3149 235.32 38.6066 235.435 39.643 234.851C55.2057 226.539 71.4977 219.669 88.315 214.335C95.0702 212.304 101.982 210.528 109.055 209.085C109.883 208.919 110.597 208.393 111.003 207.653C136.654 159.956 175.602 120.726 223.123 94.7357C270.639 68.7463 324.68 57.1103 378.683 61.2463C432.688 65.3818 484.328 85.1063 527.336 118.022C530.034 120.069 531.717 123.179 531.951 126.554C532.185 129.928 530.951 133.241 528.565 135.642L387.699 276.455L213.219 227.043C179.208 218.95 143.781 218.887 109.74 226.856C106.688 227.533 95.74 230.356 93.3493 231.07L155.943 248.804H155.937C159.109 249.7 161.651 252.07 162.776 255.169C163.896 258.268 163.458 261.716 161.594 264.434L156.75 271.549L156.755 271.554C154.24 275.153 149.724 276.773 145.495 275.58L52.6774 249.148C51.8857 248.924 51.0419 249.039 50.3441 249.466C43.141 253.898 5.75074 277.835 3.91207 280.534C-2.32753 289.867 -1.33793 302.7 8.57874 305.56L19.1361 308.534C18.5527 314.425 17.6205 335.717 17.6205 340.441V340.446C17.8757 429.848 53.2925 515.553 116.214 579.06C179.131 642.57 264.507 678.778 353.907 679.872C443.303 680.96 529.534 646.845 593.987 584.893C658.44 522.94 695.935 438.12 698.378 348.746C698.388 347.58 697.711 346.517 696.654 346.033C695.596 345.543 694.352 345.725 693.477 346.486L672.919 364.663C672.503 365.033 672.195 365.517 672.044 366.054C671.19 369.069 668.31 379.346 668.31 379.346C662.57 399.324 646.826 414.856 626.774 420.319C625.837 420.564 625.092 421.272 624.8 422.194C589.248 536.006 481.733 620.434 357.307 620.434C297.328 620.522 238.916 601.251 190.76 565.486C188.01 563.455 186.281 560.33 186.026 556.923C185.765 553.517 187.005 550.168 189.421 547.751L564.675 172.485C567.102 170.078 570.451 168.844 573.862 169.104C577.269 169.365 580.394 171.094 582.42 173.844C601.54 199.579 616.06 228.428 625.341 259.109C627.091 264.766 628.607 270.484 629.95 276.26L539.71 319.484L465.58 298.484C464.564 298.198 463.475 298.479 462.725 299.224L435.31 326.64C434.601 327.416 434.367 328.509 434.685 329.504C435.179 331.239 435.179 333.077 434.685 334.817L431.466 346.291C430.768 348.791 429.096 350.916 426.82 352.181C424.549 353.447 421.867 353.749 419.367 353.025L412.893 351.171C411.877 350.879 410.778 351.161 410.028 351.905L357.976 403.957C357.372 404.567 357.065 405.41 357.138 406.265C357.211 407.119 357.658 407.9 358.356 408.395L404.439 440.994C418.559 450.957 435.106 456.92 452.33 458.259L473.444 459.894H473.45C477.075 460.155 480.47 458.098 481.918 454.764C483.361 451.426 482.538 447.54 479.866 445.077C468.085 434.17 453.268 420.577 439.382 407.858C447.023 408.264 577.222 407.566 614.556 404.764V404.77C623.061 404.108 631.16 400.858 637.758 395.457C644.362 390.056 649.149 382.759 651.477 374.55L655.326 360.957C655.696 359.608 655.717 358.181 655.388 356.816L709.815 308.691H709.81C713.539 305.368 715.164 300.274 714.044 295.405C712.924 290.54 709.242 286.665 704.44 285.3L704.443 285.328ZM201.616 280.953L204.882 269.521C205.569 267.011 207.231 264.881 209.502 263.61C211.772 262.339 214.455 262.026 216.955 262.756L228.387 265.964C230.897 266.672 233.017 268.349 234.288 270.625C235.559 272.901 235.871 275.589 235.158 278.094L231.95 289.526C230.444 294.735 225.033 297.756 219.814 296.297L208.382 293.032V293.026C203.184 291.552 200.158 286.157 201.616 280.953L201.616 280.953ZM152.554 511.66C150.158 514.046 146.845 515.285 143.47 515.051C140.095 514.811 136.986 513.134 134.939 510.436C98.1004 462.442 77.8924 403.754 77.3657 343.25C77.3084 337.302 77.423 331.234 77.772 325.167L272.425 380.292C275.399 381.11 278.373 381.928 281.41 382.74L152.554 511.66ZM301.54 296.873L298.332 308.306C296.832 313.509 291.415 316.53 286.202 315.071L274.769 311.806H274.764C269.572 310.332 266.545 304.931 267.999 299.728L271.264 288.295C272.738 283.103 278.139 280.077 283.342 281.53L294.775 284.795C297.28 285.493 299.4 287.16 300.671 289.426C301.941 291.691 302.254 294.373 301.54 296.873H301.54ZM367.926 315.655L364.717 327.087C364.004 329.597 362.327 331.717 360.051 332.988C357.775 334.254 355.087 334.566 352.582 333.853L341.15 330.644C339.337 330.134 337.712 329.098 336.483 327.67C334.29 325.165 333.499 321.723 334.384 318.514L337.65 307.082C339.124 301.884 344.525 298.858 349.723 300.311L360.691 303.462L361.16 303.577V303.582C363.66 304.275 365.78 305.941 367.051 308.212C368.322 310.478 368.634 313.155 367.926 315.655L367.926 315.655Z" fill="black"/>
</svg>
