<svg width="250" height="143" viewBox="0 0 250 143" fill="none" xmlns="http://www.w3.org/2000/svg">
<g opacity="0.5" clip-path="url(#clip0_4_9)">
<path d="M155.1 73.625L154.525 73.925L154.1 74.4L153.475 75.65L153.175 75.975L151.95 76.975L151.525 77.475L151.2 78.025L150.7 80L150.35 80.725L150.025 81.075L149.7 81.275L148.875 81.45L148.275 81.675L147.725 82.025L147.425 82.325L147.175 82.625L145.6 85.675L145.15 86.2L144.225 87.125L144.05 87.475L144 87.85L144.2 88.4L144.775 89.425L144.925 89.925L144.975 90.425L144.875 91.125L144.7 91.475L144.475 91.7L144 91.825L143.4 91.775L142.925 91.55L142.35 90.875L142.025 90.65L141.65 90.075L141.3 89.675L141 89.45L140.425 89.225L140.1 89.175L139.625 89.3L139 89.85L137.35 90.975L135.95 91.55L135.725 91.825L135.65 92.375L135.775 92.725L136.175 93.225L136.225 93.425L136.1 93.525L135.05 93.4L134.6 93.55L134.25 92.95L133.95 92.65L133.4 92.7L132.975 93.05L132.625 93.45L132.275 93.6L131.8 93.5L131.675 93.35L131.55 92.725L131.15 92.475L131 92.2L130.9 91.6L130.875 91.175L130.7 90.825L130.175 90.5L128.85 90.25L126.1 90.225L124.775 89.925L124.2 89.55L123.075 88.6L122.475 88.35L121.725 88.425L120.35 89.2L119.625 89.4L119.2 89.35L118.375 89.15L117.95 89.1L117.6 89.15L116.9 89.425L116.6 89.45L116.175 89.2L115.3 88.325L114.8 88.025L114.05 87.925L111.575 87.95L111.025 88.275L110.8 88.325L109.7 87.925H109.35L108.95 87.725L108.45 87.65L107.575 87.675L106.675 87.5L106.325 87.55L106 87.925L105.55 87.55L105.025 87.275L104.75 86.975L104.95 86.5L105.4 86.25L105.925 86.275L106.85 86.5L107.95 86.325L108.925 85.8L109.375 85.025L111.1 84.5L111.5 84.15L111.85 83.575L112.65 81.575L112.875 80.775L113.025 80.5L113.65 79.725L114 79.05L114.4 78.6L114.775 78.3L115.225 77.225L115.2 76.35L115.1 76.05L114.575 75.525L114.35 75.2L114.075 74.575L113.525 73.75L113.25 72.6L112.55 71.4L113.075 71.075L113.3 70.85L113.575 70.525L114.025 69.05L114.25 68.575L114.875 67.75L115.375 67.15L115.6 66.7L115.7 66.2L115.6 65.35L115.75 64.825L115.9 64.5L117.175 63.325L117.075 62.825L116.975 62.575L115.675 61.05L115.525 60.7L115.825 60.3L116.25 60.025L117 59.65L118.975 57.925L119.275 57.6L119.65 56.925L119.9 56.65L120.325 56.5L120.925 56.475L121.525 56.575L122 56.525L122.5 56.35L123.3 55.8L124.075 55.15L124.3 54.925L124.65 54.675L125.125 54.475L126.4 54.3L126.8 54.175L127.625 53.625L128.575 53.4L128.85 53.275L129.15 53.775L130.7 54.7L132.8 55.125L133.175 55.3L133.5 55.575L134 56.425L134.65 57L134.9 57.3L135.375 58.9L135.775 59.6L136.525 59.825L137.225 59.8L137.75 60.025L138.25 60.325L138.85 60.55L140.55 60.85L140.825 61L141.125 61.6L141.35 61.875L141.95 62.1L142.525 62.2L142.875 62.5L142.725 64.125L143.125 64.4L144.525 64.475L145.1 64.775L145.9 65.7L146.45 66.125L146.825 66.3L147.2 66.35L148.9 66.225L149.275 66.3L149.775 66.475L150.1 66.525L150.4 66.425L150.65 66.2L151.025 65.375L151.225 65.175L152.125 64.675L152.675 64.475L152.875 64.175L153.175 63.575L153.375 63.275L153.575 63.075L154.275 62.925L154.9 63.175L156.025 63.95L157.525 64.45L157.75 64.85L157.4 66.6L157.325 66.9L157.125 67.2L156.9 67.375L156.375 67.6L156.2 67.85L156.15 68.05V68.7L155.95 69.175L155.175 69.65L154.975 70L155.225 71.9V72.575L155.1 73.625Z" fill="#219C8E" stroke="#1E8B7F" stroke-width="2" stroke-linecap="round" stroke-linejoin="round"/>
<path d="M78.05 50.8L76.625 52.075L76.25 53L76.125 53.5L75.85 54.1L75.475 54.575L72.125 57.225L70.375 58.35L70.025 58.675L68.9 60.35L68.275 61L67.9 61.325L67.325 61.65L66.95 62.15L66.325 63.4L65.55 63.825L64.225 63.875L63.775 63.825L63.35 63.725L61.975 63.15L60.875 64.5L60.675 65L60.55 65.55L60.575 65.85L61.075 66.9L61.2 67.425L61.225 68.175L61.1 68.65L60.9 69.025L60.575 69.325L59.8 69.625L59.525 69.775L59.3 70.075L59.275 70.325L59.375 70.625L59.725 71.15L59.85 71.55V72.825L60.05 73.15L61.9 73.925L62.525 74.65L62.875 75.425L63.55 76.525L61.925 77.375L61.5 78.625L61.075 79.275L61.05 79.6L61.15 79.975L61.4 80.275L62.35 81.05L62.625 81.3L63.125 81.975L63.325 82.175L64.125 82.3L64.375 82.475L65.775 83.725L66.025 84.175L66.175 84.625V85.2L66.125 85.95L66.025 86.3L65.725 86.625L65.225 86.9L64.6 87.025H64.325L63.6 86.95L63.275 87.125L62.325 88.05L62.175 88.45L61.475 88.2L59.9 88.05L59 88.45L57.75 89.925L57.05 90.4L56.2 90.325L55.35 89.825L54.5 89.175L52.975 88.3L51.75 86.975L51.1 86.45L50.375 86.175L48.825 85.825L48.225 85.35L47.825 84.7L47.2 84.25L44.5 82.85L44.025 82.475L43.9 82.15L43.85 81.8L43.725 81.3L43.325 80.65L42.775 80.05L42.125 79.575L41.425 79.325L40.95 79.4L40.75 79.725L40.625 80.15L40.35 80.55L39.9 80.775L39.4 80.85L39.05 80.7L39.15 80.2L38.65 80.075L38.45 79.825L38.575 79.525L39.05 79.35L38.625 78.5L36.85 76.45L36.425 75.475L35.825 73.4L35.175 72.6L34.475 72.225L31.425 71.625V71.05L31.8 69.7L32.125 69.25L33.15 68.6L33.525 68.325L37.8 63.6L38.325 63L38.5 62.225L38.575 61.525L38.475 60.875L37.475 58.625L37.15 57.525L36.975 56.35L36.675 55.825L36.25 55.45L35.825 55.2L35.95 55.65L36.325 56.425L36.45 56.875L35.2 56.15L34.925 56.225L34.5 55.3L34.15 54.95L33.725 55.025L33.325 55.275L32.875 55.4L32.375 55.075L31.25 54.15L29.75 52.55L29.9 52.125L30.4 51.65L31.05 51.275L31.625 51.1L32.25 51.2L32.9 51.425L34.15 52.075L35.725 53.325L36.35 53.5L38.325 53.225L39 53.25L39.325 53.4L40.05 53.875L40.35 53.975L43.025 53.65L43.55 53.825L44.025 54.45L44.5 55.45L45.825 56.975L45.7 58.075L46.05 58.3L46.1 58.5L45.7 58.8V59.05L46.275 59L46.775 58.8L47.5 58.35L47.425 57.95L47.025 57.525L46.775 56.975L46.6 56.15L46.175 55.425L45.075 54.225L43.5 51.825L43.075 51.575L42.7 50.95L42.475 50.15L42.55 49.425L44 47.8L44.35 47.525L44.775 47.35L46.8 45.875L47.575 46.825L47.625 47.7L47.575 48.275L47.775 48.425L48.325 48.625L49.425 48.825L51.925 49.7L53.6 50L54.125 50.15L54.575 50.425L55.275 50.725L55.875 50.925L58.35 51.15L61.1 49.875L61.7 50.1L61.95 50.275L62.125 50.65L62.3 50.875L62.575 51.025L62.975 51L63.35 50.875L63.825 50.35L64.2 49.7L64.725 49.275L64.95 49.025L65.3 48.425L65.825 47.975L68.85 46.6L69.325 46.5L71.65 46.55L73.05 47.2L73.175 47.6L73.2 47.925L73.15 48.6L72.9 49.45L72.975 49.875L73.3 50.2L73.925 50.475L74.45 50.525L75.05 50.275L75.5 49.95L76.2 50.025L78.05 50.8Z" fill="#219C8E" stroke="#1E8B7F" stroke-width="2" stroke-linecap="round" stroke-linejoin="round"/>
<path d="M128.85 53.275L128.575 53.4L127.625 53.625L126.8 54.175L126.4 54.3L125.125 54.475L124.65 54.675L124.3 54.925L124.075 55.15L123.3 55.8L122.5 56.35L122 56.525L121.525 56.575L120.925 56.475L120.325 56.5L119.9 56.65L119.65 56.925L119.275 57.6L118.975 57.925L117 59.65L116.25 60.025L115.825 60.3L115.525 60.7L115.675 61.05L116.975 62.575L117.075 62.825L117.175 63.325L115.9 64.5L115.75 64.825L115.6 65.35L115.7 66.2L115.6 66.7L115.375 67.15L114.875 67.75L114.25 68.575L114.025 69.05L113.575 70.525L113.3 70.85L113.075 71.075L112.55 71.4L113.25 72.6L113.525 73.75L114.075 74.575L114.35 75.2L114.575 75.525L115.1 76.05L115.2 76.35L115.225 77.225L114.775 78.3L114.4 78.6L114 79.05L113.65 79.725L113.025 80.5L112.875 80.775L112.65 81.575L111.85 83.575L111.5 84.15L111.1 84.5L109.375 85.025L108.925 84.1L108.675 84L108.225 83.975L108.075 83.625L108.05 83.225L108.15 83.025L108.1 82.775L107.9 82.55L106.475 81.325L106.15 81.125L105.75 80.975L105.125 80.85L104.25 80.8L103.825 80.675L103.35 80.3L103.075 79.975L102.85 79.625L102.6 79.35L102.2 79.1L101.525 78.75L101.125 78.6L100.3 78.575L99.875 78.425L99.275 78.075L97.575 76.575L96.95 76.325L96.425 76.175L94.025 76.625L93.875 75.675L93.475 75.125L92.775 74.475L89.95 72.25L89.625 71.3L89.4 71.05L89 70.65L88.75 70.35L88.375 69.5L88.075 69.225L87.9 68.9L88.625 67.75L88.25 67.425V67.175L88.425 66.8L88.95 66.3L89.45 66.1L89.825 66.05L90.15 66.075L90.4 65.95L90.55 65.6L90.525 65.3L90.425 65.075L90.1 64.65L90 64.4L90.35 64.125L91.075 63.775L92.7 63.325L94.325 62.6L95.325 61.175L95.675 60.475L95.825 59.475L96.7 59.6L97.5 59.9L98 59.95L98.725 59.925L99.7 60.075H100.275L101.725 59.75L102.375 59.525L103.075 59.125L105.825 58.075L106.25 57.5L107.275 54.625L107.825 53.65L109.525 51.45L109.8 51.2L109.975 50.875L110.125 50.35L110.375 47.625L110.525 47.225L110.825 46.8L111.15 46.5L111.45 46.125L111.55 45.85L111.375 44.65L111.625 44.15L111.75 43.525L111.975 42.95L112.6 42.325L113.35 42.075L114.15 42.05L114.925 42.125L115.6 42.025L116.975 41.35L117.7 41.15L117.925 41.025L118.175 40.55L118.375 40.375L119.325 40.1L119.9 40.025H120.275L120.65 40.125L120.95 40.275L121.125 40.55L121.2 41.025L121.575 40.8L121.975 40.7L122.325 40.775L122.6 41.15L123.025 41.575L123.575 41.475L124.15 41.25L124.7 41.275L124.975 41.6L125.175 42.55L125.4 42.925L125.8 43.025L126.3 42.975L126.7 43.025L126.9 43.525L126.7 44.1L126.3 44.65L126 45.225L126.175 45.9L126.85 46.575L127.05 46.825L127.15 47.15L127.325 48.25L128.025 48.675L128.7 48.9L129.05 49.35L128.275 52.35L128.85 53.275Z" fill="#219C8E" stroke="#1E8B7F" stroke-width="2" stroke-linecap="round" stroke-linejoin="round"/>
<path d="M111.375 44.65L111.55 45.85L111.45 46.125L111.15 46.5L110.825 46.8L110.525 47.225L110.375 47.625L110.125 50.35L109.975 50.875L109.8 51.2L109.525 51.45L107.825 53.65L107.275 54.625L106.25 57.5L105.825 58.075L103.075 59.125L102.375 59.525L101.725 59.75L100.275 60.075H99.7L98.725 59.925L98 59.95L97.5 59.9L96.7 59.6L95.825 59.475L94.625 59.2L90.05 56.875L89.425 56.65L88.975 56.575L87.125 56.7L85.55 56.55L85.15 56.6L84.825 56.725L84.3 56.8L83.85 56.65L82.425 55.65L82.225 55.35L82.175 55L82.2 54L82.1 53.55L81.95 53.275L80.75 52.025L80.225 51.575L79.825 51.35L78.05 50.8L76.2 50.025L75.5 49.95L75.05 50.275L74.45 50.525L73.925 50.475L73.3 50.2L72.975 49.875L72.9 49.45L73.15 48.6L73.2 47.925L73.175 47.6L73.05 47.2L71.65 46.55L69.325 46.5L68.85 46.6L65.825 47.975L65.3 48.425L64.95 49.025L64.725 49.275L64.2 49.7L63.825 50.35L63.35 50.875L62.975 51L62.575 51.025L62.3 50.875L62.125 50.65L61.95 50.275L61.7 50.1L61.1 49.875L58.35 51.15L55.875 50.925L55.275 50.725L54.575 50.425L54.125 50.15L53.6 50L51.925 49.7L49.425 48.825L48.325 48.625L47.775 48.425L47.575 48.275L47.625 47.7L47.575 46.825L46.8 45.875L46.4 45.425L46 45.1L45.075 44.525L44.85 44.35L44.725 43.9L44.625 43.325L44.9 41.175L44.525 40.275L44.5 39.9L44.625 39.575L44.925 39.2L45.875 38.225L46.35 37.875L47.625 37.475L48.05 37.4L48.625 37.375L49.1 37.55L49.875 38.275L50.175 38.4L50.575 38.425L51.1 38.35L52.175 38.025L52.35 37.4L52.025 36.825L51.725 36.15L51.575 35.35L51.6 34.525L51.7 33.825L51.9 33.25L52.225 32.775L53.425 31.95L53.925 31.475L54.125 30.75L54.15 30.175L54.125 29.45L53.825 28.9L53.075 28.7L52.575 28.45L52.175 28.175L51.825 27.85L51.55 27.425L51.35 26.825L51.3 26.4L51.325 26.1L52.175 23.35L52.325 22.475L52.4 21.325L52.475 20.9L52.575 20.625L52.75 20.425L53.375 19.9L53.575 19.65L53.75 19.125L53.725 18.7L53.6 18.375L53.3 18.125L52.875 17.975L51.7 17.725L51.175 17.55L50.775 17.225L50.4 17.075L49.85 16.975L47.575 17.025L46.875 17.175L46.225 17.55L45.45 18.725L45.25 18.85L44.875 18.775L44.6 18.625L43.95 18.15L43.825 17.85L43.8 17.55L43.9 16.475L43.85 16.15L43.725 15.825L43.45 15.375L43.15 14.725L42.95 14.175L42.65 14.025H41.975L40.975 14.15L40.45 13.95L39.8 13.425L39.15 13.15L38.2 12.5L38.325 12.2L38.425 11.675L38.4 11.425L38.15 10.875V10.6L38.5 10.375L38.975 10.325L39.475 10.375L39.85 10.3L40.35 9.95L40.7 9.475L40.925 8.9L41.075 7.775L41.45 7.125L41.55 6.8L41.525 6.5L41.325 5.925L41.3 5.6L41.25 4.375L41.375 3.8L41.7 3.3L41.85 2.8L41.775 2.25L41.85 1.775L42.475 1.6L43.05 1.825L44.175 2.925L44.775 3.275L45.6 3.4L45.95 3.275L46.275 1.9L46.425 1.625L46.65 1.475L47.25 1.375L47.65 1.175L47.925 0.55L48.125 0.35L48.8 0.25L49.475 0.45L53.2 2.175L53.85 2.35L54.55 2.225L55.2 1.975L55.875 1.875L57.175 2.45L58.225 2.375L58.825 2.475L59.1 2.675L59.475 3.2L59.675 3.4L59.975 3.45L60.875 3.1L62.15 3L62.875 3.075L63.35 3.325L63.5 3.875L63.15 5.925L63.25 6.85L63.575 7.475L64.125 7.875L64.925 8.175L65.4 8.625L65.25 9.3L64.55 10.625L64.575 11.125L64.775 11.875L65.075 12.575L65.35 12.975L65.975 13.075L66.525 12.875L67.1 12.75L68.475 13.625L69.1 13.725L69.725 13.75L70.4 13.925L70.65 14.125L71.025 14.725L71.275 14.925L71.775 15L72.25 14.925H72.725L73.2 15.225L73.6 15.75L74.1 16.25L74.65 16.675L75.225 16.975L76.7 17.425L77.25 17.75L79.6 20.7L80.125 21.1L80.45 21.075L81.075 20.875L81.4 20.9L81.75 21.125V21.425L81.625 21.775L81.525 22.2L81.825 22.8L83.675 24.25L84.25 25.15L84.575 25.475L84.95 25.675L85.325 25.8L85.625 26L85.85 26.425L86.275 27.075L86.925 26.85L87.625 26.325L88.225 26.05L88.5 26.2L88.95 26.725L89.2 26.9L89.525 26.95L90.2 26.85L90.55 26.925L92.3 28.45L92.55 28.825L92.95 29.675L93.275 29.925L93.725 29.9L93.9 29.525L94 29.025L94.15 28.65L94.375 28.55L95.175 28.35L95.9 28.275L96.25 28.3L96.6 28.425L97.025 28.75L97.15 28.925L97.325 29.55L97.575 29.7L98.1 29.875L98.325 30.025L99.025 30.75L99.275 31.225L99.35 31.75L99.25 32.05L98.925 32.475L98.875 32.875L99.375 33.65L101.35 33.225L102.175 34.075L102.25 34.725L102.175 35.225L102.225 35.675L103.15 36.45L103.225 36.85L103.2 37.275L103.35 37.75L103.7 38.1L104.1 38.3L104.425 38.575L104.7 39.55L105.025 39.85L105.875 40.2L106.425 40.575L106.7 41.1L107 42.425L107.075 43.2L107.15 43.55L107.35 43.825L107.725 43.975L108.5 44.1L108.825 44.375L109.175 44.575L110.425 44.825L110.875 44.85L111.375 44.65Z" fill="#219C8E" stroke="#1E8B7F" stroke-width="2" stroke-linecap="round" stroke-linejoin="round"/>
<path d="M109.375 85.025L108.925 85.8L107.95 86.325L106.85 86.5L105.925 86.275L105.4 86.25L104.95 86.5L104.75 86.975L105.025 87.275L105.55 87.55L106 87.925L106.325 87.55L106.675 87.5L107.575 87.675L108.45 87.65L108.95 87.725L109.35 87.925H109.7L110.8 88.325L111.025 88.275L111.575 87.95L114.05 87.925L114.8 88.025L115.3 88.325L116.175 89.2L116.6 89.45L116.9 89.425L117.6 89.15L117.95 89.1L118.375 89.15L119.2 89.35L119.625 89.4L120.35 89.2L121.725 88.425L122.475 88.35L123.075 88.6L124.2 89.55L124.775 89.925L126.1 90.225L128.85 90.25L130.175 90.5L130.7 90.825L130.875 91.175L130.9 91.6L131 92.2L131.15 92.475L131.55 92.725L131.675 93.35L131.8 93.5L132.275 93.6L132.625 93.45L132.975 93.05L133.4 92.7L133.95 92.65L134.25 92.95L134.6 93.55L134.9 94.175L135 94.575L134.875 95.075L134.575 95.45L133.725 96L132.875 95.675L132.1 96.05L131.325 96.65L130.475 96.95L129.975 96.9L129.6 96.825L129.275 96.8L128.9 96.95L128.325 97.8L127.95 98.1L127.425 97.875L126.75 98.7L125.5 100.8L125.1 101.225L124.075 100.475L123.45 100.9L122.75 100.95L120.7 100.675H120.325L120.075 100.75L119.825 100.975L119.65 101.275L119.675 101.55L119.975 101.675H120.6L120.7 101.85L120.375 102.275L120.15 102.65L120.175 103.45L120.075 103.8L119.55 104.225L118.875 104.425L117.45 104.525L116.85 104.775L117.125 105.325L118 106.3L118.2 106.975L118.175 107.275L117.7 107.525L117.475 107.85L117.275 107.625L115.875 107.125L111.625 104.825L109.4 103.975L106.025 103.525L103.15 103.5L102.35 103.8L102.2 104.125L102.125 104.55L102.2 104.95L102.65 105.6L102.625 106L102.4 106.45L101.75 107.425L101.225 107.95L100.625 108.3L99.95 108.325L99.25 108.075L98.925 107.725L98.75 107.25L98.4 106.6L98 106.15L96.5 104.875L95.35 104.425L91.6 104.45L89.675 103.95L88.25 103.175L87.5 102.925L83.7 102.65L83 101.85L82.675 100.55L82.375 97.95L82 96.625L81.475 95.75L81.3 95.7L81.575 94.6L81.775 94.2L82.05 93.8L82.6 93.475L83.175 93.275L83.65 93.225L85.175 93.375L86.5 92.925L85.8 92.2L84.375 91.525L84 91.25L84.15 90.9L85.2 89.75L86.575 88.55L87.3 88.325L88.025 88.475L88.425 88.5L88.8 88.425L89.175 88.3L90.075 87.75L91.075 87.4L91.4 87.025L91.2 86.45L90.725 86.05L90.525 85.7L90.425 85.15L90.725 84.05L90.875 83.125L91.275 81.925L92.075 81.2L92.325 80.95L92.475 80.675L92.425 80.25L92.3 79.925L91.725 79.15L91.6 78.8L91.625 78.45L91.85 78.1L92.25 77.75L93.625 77.1L94.025 76.625L96.425 76.175L96.95 76.325L97.575 76.575L99.275 78.075L99.875 78.425L100.3 78.575L101.125 78.6L101.525 78.75L102.2 79.1L102.6 79.35L102.85 79.625L103.075 79.975L103.35 80.3L103.825 80.675L104.25 80.8L105.125 80.85L105.75 80.975L106.15 81.125L106.475 81.325L107.9 82.55L108.1 82.775L108.15 83.025L108.05 83.225L108.075 83.625L108.225 83.975L108.675 84L108.925 84.1L109.375 85.025Z" fill="#219C8E" stroke="#1E8B7F" stroke-width="2" stroke-linecap="round" stroke-linejoin="round"/>
<path d="M32.575 14.05L31.9 14.55L31.425 15L30.525 16.3L30.125 17.1L29.975 17.55L30 17.8L30.625 18.3L30.8 18.575L30.95 18.9L31.025 19.25L31.15 20.125L31.65 22.1L31.675 23.3L31.5 23.875L31.15 24.25L30.75 24.375L30.075 24.45L29.875 24.5L28.9 25.05L28.375 25.15L27.775 25.175L26.625 25.425L25.725 25.825L25.125 26.3L24.7 26.5L24.325 26.55L23.8 26.45L23.4 26.55L22.625 27.175L22.425 27.7L22.65 28.225L22.775 28.65L22.9 29.2L22.875 30L22.75 30.425L22.55 30.775L22.225 31.075L22 31.6L22.05 31.95L22.375 32.175L23.25 32.4L23.925 32.5L24.3 32.7L24.95 33.65L26.475 35.15L25.5 36.4L24.525 36.975L23.2 37.4L22.75 37.85L22.325 38.95L21.9 39.7L21.7 40.2L21.575 40.7L21.525 41.15L21.325 41.825L20.975 42.425L20.4 43.225L19.975 43.6L19.55 43.875L18.075 44.325L17.525 44.625L16.7 45.425L16.4 45.875L16.225 46.35L16.175 46.625L15.95 46.875L15.85 47.1L15.725 48.025L15.3 48.525L15.125 49.025L14.925 49.75L14.425 50.725L14.725 52.7L14.55 55.3L14.625 56.125L14.875 56.65L15.3 57.35L15.475 57.75L15.675 58.425L15.75 58.85L15.7 61.5L15.2 61.475L14.575 61.825L14.275 62.3L14.2 62.9L14.45 65.125L14.3 65.575L13.7 65.25L12.4 63.675L11.85 63.35L11.225 63.325L10.625 63.475L10.05 63.55L9.425 63.3L9.075 62.875L8.25 61.125L8 60.925L7.45 60.8L7.2 60.675L6.975 60.425L6.65 59.85L6.475 59.625L5.95 59.3L4.875 59.125L4.3 58.9L3.85 58.55L2.825 57.175L1.825 56.6L1 56.425L0.425 55.975L0.25 54.55L0.275 53.85L0.35 53.225L0.575 52.625L0.95 52.05L1.425 51.675L1.925 51.4L2.375 51.075L2.625 50.45L2.525 49.3L2.8 47.75L3.375 46.4L4.325 45.95L4.85 46.025H5.5L6.075 45.85L6.475 45.375L6.375 44.85L5.875 43.375L6.025 42.875L6.55 42.8L6.95 43.1L7.225 43.175L7.875 40.85L8 40.05L7.9 39.375L7.675 39.175L7.15 39.15L6.975 38.8L6.75 37.375L6.1 36.225L5.875 35.625L6 35L6.325 34.75L7.225 34.45L7.4 34.125L7.475 33.675L7.975 33.25L8.25 32.9L8.875 32.425L9.125 32.15L9.35 31.825L9.375 31.65L9.25 31.225L9.35 31L10.075 30.525L10.775 29.725L11.125 29L11.175 28.225L10.9 27.3L10.475 26.375L10.175 25.475V24.575L10.625 23.6L11.425 22.95L13.275 22.45L13.925 21.9L15.475 19.9L16.175 18.8L16.575 17.525L16.825 16.925L17.3 16.675L18.4 16.525L18.975 16.325L19.375 16.075L20.175 15.325L21.275 14.575L21.575 14.225L22.5 12.75L22.925 12.3L24.75 10.9L25.375 9.95001L24.975 9.02501L25.4 8.60001L25.925 7.95001L26.425 7.57501L26.725 8.02501L27.025 8.65001L27.55 8.77501L29.625 8.07501L29.85 8.05001L30.175 8.35001L30.575 8.92501L30.925 9.62501L31.325 10.775L32.025 11.95L32.25 12.5L32.575 14.05Z" fill="#219C8E" stroke="#1E8B7F" stroke-width="2" stroke-linecap="round" stroke-linejoin="round"/>
<path d="M46.8 45.875L44.775 47.35L44.35 47.525L44 47.8L42.55 49.425L42.475 50.15L42.7 50.95L43.075 51.575L43.5 51.825L45.075 54.225L46.175 55.425L46.6 56.15L46.775 56.975L47.025 57.525L47.425 57.95L47.5 58.35L46.775 58.8L46.275 59L45.7 59.05V58.8L46.1 58.5L46.05 58.3L45.7 58.075L45.825 56.975L44.5 55.45L44.025 54.45L43.55 53.825L43.025 53.65L40.35 53.975L40.05 53.875L39.325 53.4L39 53.25L38.325 53.225L36.35 53.5L35.725 53.325L34.15 52.075L32.9 51.425L32.25 51.2L31.625 51.1L31.05 51.275L30.4 51.65L29.9 52.125L29.75 52.55L31.25 54.15L32.375 55.075L32.875 55.4L33.325 55.275L33.725 55.025L34.15 54.95L34.5 55.3L34.925 56.225L35.2 56.15L36.45 56.875L36.325 56.425L35.95 55.65L35.825 55.2L36.25 55.45L36.675 55.825L36.975 56.35L37.15 57.525L37.475 58.625L38.475 60.875L38.575 61.525L38.5 62.225L38.325 63L37.8 63.6L33.525 68.325L33.15 68.6L32.125 69.25L31.8 69.7L31.425 71.05V71.625L30 71.35L29.775 70.975L29.7 70.55L29.6 70.175L29.25 69.95L28.775 70.125L28.175 70.1L27.575 69.975L27.075 69.825L26.5 69.4L26.35 68.925L26.3 68.4L26.05 67.875L25.625 67.675H24.375L23.8 67.55L23.275 67.25L22.125 66.025L21.6 65.675L20.65 65.4L20.125 65.15L19.8 64.75L19.2 63.575L18.8 63.3L17.675 63.1L17.15 62.9L16.6 62.625L16.4 62.35L16.45 61.725L16.35 61.5H15.7L15.75 58.85L15.675 58.425L15.475 57.75L15.3 57.35L14.875 56.65L14.625 56.125L14.55 55.3L14.725 52.7L14.425 50.725L14.925 49.75L15.125 49.025L15.3 48.525L15.725 48.025L15.85 47.1L15.95 46.875L16.175 46.625L16.225 46.35L16.4 45.875L16.7 45.425L17.525 44.625L18.075 44.325L19.55 43.875L19.975 43.6L20.4 43.225L20.975 42.425L21.325 41.825L21.525 41.15L21.575 40.7L21.7 40.2L21.9 39.7L22.325 38.95L22.75 37.85L23.2 37.4L24.525 36.975L25.5 36.4L26.475 35.15L24.95 33.65L24.3 32.7L23.925 32.5L23.25 32.4L22.375 32.175L22.05 31.95L22 31.6L22.225 31.075L22.55 30.775L22.75 30.425L22.875 30L22.9 29.2L22.775 28.65L22.65 28.225L22.425 27.7L22.625 27.175L23.4 26.55L23.8 26.45L24.325 26.55L24.7 26.5L25.125 26.3L25.725 25.825L26.625 25.425L27.775 25.175L28.375 25.15L28.9 25.05L29.875 24.5L30.075 24.45L30.75 24.375L31.15 24.25L31.5 23.875L31.675 23.3L31.65 22.1L31.15 20.125L31.025 19.25L30.95 18.9L30.8 18.575L30.625 18.3L30 17.8L29.975 17.55L30.125 17.1L30.525 16.3L31.425 15L31.9 14.55L32.575 14.05L32.975 14.45L33.8 14.225H34.525L35.95 14.875L36.625 14.75L36.95 14.25L36.9 13.25L37.325 12.95L37.85 12.8L38.2 12.5L39.15 13.15L39.8 13.425L40.45 13.95L40.975 14.15L41.975 14.025H42.65L42.95 14.175L43.15 14.725L43.45 15.375L43.725 15.825L43.85 16.15L43.9 16.475L43.8 17.55L43.825 17.85L43.95 18.15L44.6 18.625L44.875 18.775L45.25 18.85L45.45 18.725L46.225 17.55L46.875 17.175L47.575 17.025L49.85 16.975L50.4 17.075L50.775 17.225L51.175 17.55L51.7 17.725L52.875 17.975L53.3 18.125L53.6 18.375L53.725 18.7L53.75 19.125L53.575 19.65L53.375 19.9L52.75 20.425L52.575 20.625L52.475 20.9L52.4 21.325L52.325 22.475L52.175 23.35L51.325 26.1L51.3 26.4L51.35 26.825L51.55 27.425L51.825 27.85L52.175 28.175L52.575 28.45L53.075 28.7L53.825 28.9L54.125 29.45L54.15 30.175L54.125 30.75L53.925 31.475L53.425 31.95L52.225 32.775L51.9 33.25L51.7 33.825L51.6 34.525L51.575 35.35L51.725 36.15L52.025 36.825L52.35 37.4L52.175 38.025L51.1 38.35L50.575 38.425L50.175 38.4L49.875 38.275L49.1 37.55L48.625 37.375L48.05 37.4L47.625 37.475L46.35 37.875L45.875 38.225L44.925 39.2L44.625 39.575L44.5 39.9L44.525 40.275L44.9 41.175L44.625 43.325L44.725 43.9L44.85 44.35L45.075 44.525L46 45.1L46.4 45.425L46.8 45.875Z" fill="#219C8E" stroke="#1E8B7F" stroke-width="2" stroke-linecap="round" stroke-linejoin="round"/>
<path d="M184.925 89.05L184.375 90.6L184.25 91.425L184.325 92.675L184.3 93.425L184.2 93.75L184 93.95L183.3 94.075L183.125 94.15L182.825 94.45L182.4 95.075L181.925 96.15L181.55 96.775L181.175 97.275L179.975 98.6L178.525 100.4L178.375 100.9L178.025 101.55L177.825 101.875L177.325 102.475L177.55 103.2L177.7 104.6L176.975 105.4L175.175 105.7L174.825 105.925L174.675 106.15L174.575 106.8L174.275 107.275L173.95 107.425L173.525 107.475L169.125 107.175L168.725 107L168.05 106.475L167.3 105.75L166.525 105.35L165.6 105.075L163.3 104.65L161.375 103.575L160.95 103.2L160.65 102.85L160.525 102.475L160.425 101.675L160.35 101.45L160.075 101.075L159.825 100.625L159.525 98.05L159.125 96.775L158.8 96.325L158.475 96.2L156.975 95.875L155.4 95.15L154.875 95L154.475 94.925L152.375 95.05L152.025 95.1L151.175 95.375L150.55 95.45L149.85 95.6L149.2 96.05L148.7 96.2L148.325 96.225L146.4 96.025L146.025 94.925L145.65 94.5L145.35 94.325L143.075 94.25L142.575 94.15L142.425 93.825L142.575 93.575L142.45 93.1L142.075 92.55L141.725 91.925L141.7 91.7L141.775 91.3L142.025 90.65L142.35 90.875L142.925 91.55L143.4 91.775L144 91.825L144.475 91.7L144.7 91.475L144.875 91.125L144.975 90.425L144.925 89.925L144.775 89.425L144.2 88.4L144 87.85L144.05 87.475L144.225 87.125L145.15 86.2L145.6 85.675L147.175 82.625L147.425 82.325L147.725 82.025L148.275 81.675L148.875 81.45L149.7 81.275L150.025 81.075L150.35 80.725L150.7 80L151.2 78.025L151.525 77.475L151.95 76.975L153.175 75.975L153.475 75.65L154.1 74.4L154.525 73.925L155.1 73.625L155.05 74.075L155.275 74.575L155.95 75H156.725L157.35 74.7L157.925 74.575L158.9 75.475L159.475 75.725L160.05 75.85L160.55 75.875L160.975 75.775L161.825 75.4L162.175 75.325L162.575 75.525L162.875 75.825L163.175 76.075L163.725 76.125L164.175 75.925L164.9 75.125L165.325 74.85L165.825 74.825L166.3 75L167.175 75.45L167.85 75.325H168.55L169.275 75.425L169.925 75.6L170.55 76.025L170.95 76.45L171.35 76.425L172.2 75.15L172.425 74.95L173.075 74.7L173.3 74.5L173.325 73.875L173.425 73.575L173.85 73.5L174 74.275L174.05 75.8L174.525 76.7L175.125 77.45L175.8 78.1L176.6 78.625L177.95 79.25L178.6 79.65L179.075 80.175L179.175 80.55L179.325 81.3L179.85 82.025L179.925 82.35L179.875 82.7L179.9 83.1L180.15 83.9L180.475 84.375L181.55 85.35L181.925 86V86.65L181.775 87.35L181.75 88.075L182.1 88.925L182.65 89.15L184.075 88.975L184.925 89.05Z" fill="#219C8E" stroke="#1E8B7F" stroke-width="2" stroke-linecap="round" stroke-linejoin="round"/>
<path d="M199.1 86.15L199.65 86.725L200.575 88.15L200.775 89.05V90L200.95 91.75L201.225 92.725L201.25 93.45L201.325 94.025L201.225 94.375L200.85 95L200.6 95.5L200.3 96.5L200 97.225L199.65 97.675L199.25 97.95L198.55 98.2L197.875 98.325L197.375 98.525L196.375 99.55L195.925 99.875L194.4 101.6L191.675 104.175L191.2 104.85L190.675 106.025L190.4 106.8L190.325 107.1L190.375 107.65L190.675 108.4L190.7 108.7L190.625 109.125L190.475 109.675L189.7 111.05V111.275L190.2 111.4L191.9 111.375L192.9 111.6L193.35 111.75L193.6 111.925L193.8 112.225L194.175 112.6L195.125 113.2L195.35 113.425L195.175 113.775L194.225 114.9L193.4 115.625L193.475 116L193.925 116.45L194.2 117.325L194.425 118.325V119.325L194.325 119.825L194.15 120.125L192.85 120.525L192.05 121.075L191.15 122.35L190.425 122.65L189.725 122.5L188.925 122.15H188.625L188.35 122.275L187.95 122.775L187.75 123.25L187.775 123.7L188.025 124.4L188.1 124.85V126.575L188.125 126.925L188.35 127.65L188.55 128.05L189.1 128.875L189.25 129.2L189.35 129.625L189.325 129.95L189.225 130.25L187.75 133.425L187 133.475L184.525 131.925L183.6 131.6L182.5 131.95L181.8 132.025L181.25 132.35L179.15 134.15L178.5 134.55L178 134.625L177.775 134.45L177.675 133.575L177.425 133.375L176.825 133.575L176.55 133.5L174.9 132.175L174.45 131.65L174.125 130.45L174.35 127.9L174.125 126.725L173.675 126.2L171.275 124.85L170.95 124.75L168.525 125.7L166.075 127.025L165.525 127.2L164.95 127.025L164.425 127L163.925 127.475L163.5 127.975L163.45 126.575L163.5 125.875L163.775 124.775L164.25 123.525L165.25 122.025L165.425 121.65L165.55 121.25L165.6 120.65L165.55 120.225L165.425 119.7L165.35 119.125L165.4 118.725L165.55 118.325L165.975 117.525L167.925 114.8L168.125 114.025L168.2 113.15L168.475 112.25L168.45 111.875L168.275 111.075L167.925 110.3L167.6 109.95L167.35 109.775L166.6 109.375L166.325 109.175L166.175 108.95L166.1 108.65L166.15 108.1L166.625 107.5L168.05 106.475L168.725 107L169.125 107.175L173.525 107.475L173.95 107.425L174.275 107.275L174.575 106.8L174.675 106.15L174.825 105.925L175.175 105.7L176.975 105.4L177.7 104.6L177.55 103.2L177.325 102.475L177.825 101.875L178.025 101.55L178.375 100.9L178.525 100.4L179.975 98.6L181.175 97.275L181.55 96.775L181.925 96.15L182.4 95.075L182.825 94.45L183.125 94.15L183.3 94.075L184 93.95L184.2 93.75L184.3 93.425L184.325 92.675L184.25 91.425L184.375 90.6L184.925 89.05L185.15 89.025L185.575 88.825L186.55 87.85L186.725 87.7L186.7 87.35L186.35 86.9L186.175 86.625V86.25L186.25 85.95L186.275 85.65L186 85.35L185.675 85.125L185.625 84.925L185.7 84.4L185.85 83.65L185.75 83.375L185.4 82.85L185.375 82.5L188.025 79.725L188.65 79.85L188.95 80.525L189 81.375L188.8 82.075L188.525 82.675L188.6 83L188.825 83.25L189.05 83.65L189.275 84.65L189.475 85.075L189.95 85.35L190.575 85.525L191.2 85.6L191.775 85.725L192.3 86.125L193 87.05L193.3 87.25L193.6 87.325L194.1 87.075L194.375 87.025L194.65 87.175L195.7 88.05L196.3 88.3L196.7 88.25L198.5 87.325L198.9 86.825L199.1 86.15Z" fill="#219C8E" stroke="#1E8B7F" stroke-width="2" stroke-linecap="round" stroke-linejoin="round"/>
<path d="M142.025 90.65L141.775 91.3L141.7 91.7L141.725 91.925L142.075 92.55L142.45 93.1L142.575 93.575L142.425 93.825L142.575 94.15L143.075 94.25L145.35 94.325L145.65 94.5L146.025 94.925L146.4 96.025L148.325 96.225L148.7 96.2L149.2 96.05L149.85 95.6L150.55 95.45L151.175 95.375L152.025 95.1L152.375 95.05L154.475 94.925L154.875 95L155.4 95.15L156.975 95.875L158.475 96.2L158.8 96.325L159.125 96.775L159.525 98.05L159.825 100.625L160.075 101.075L160.35 101.45L160.425 101.675L160.525 102.475L160.65 102.85L160.95 103.2L161.375 103.575L163.3 104.65L165.6 105.075L166.525 105.35L167.3 105.75L168.05 106.475L166.625 107.5L166.15 108.1L166.1 108.65L166.175 108.95L166.325 109.175L166.6 109.375L167.35 109.775L167.6 109.95L167.925 110.3L168.275 111.075L168.45 111.875L168.475 112.25L168.2 113.15L168.125 114.025L167.925 114.8L165.975 117.525L165.55 118.325L165.4 118.725L165.35 119.125L165.425 119.7L165.55 120.225L165.6 120.65L165.55 121.25L165.425 121.65L165.25 122.025L164.25 123.525L163.775 124.775L163.5 125.875L163.45 126.575L163.5 127.975L162.925 128.425L161.875 128.75L161.4 128.775L158.575 128.025L157.675 127.075V125.9L157.575 124.85L156.375 124.35L155.675 124.425L153.95 125.1L153.175 125.025L153.125 124.575L153.15 124.05L152.625 123.775L151.85 123.625L151.15 123.25L150.9 122.625L150.725 121.925L150.275 121.25L149.575 120.85L148.05 120.35L147.325 119.9L147 119.375L146.525 119.25L146.025 119.45L145.6 119.75L145.275 119.775L141.575 118.75L141.175 118.475L141 117.725L141.275 116.95L141.7 116.15L142 115.425L142.175 114.05L142.1 112.725L141.825 111.45L141.325 110.175L140.55 109.025L139.625 108.4L130.825 106.775L130.15 106.325L129.575 105.525L129.275 104.875L128.85 104.55L127.925 104.7L127.65 104.6L127.3 103.775L127.025 103.45L126.3 103.15L125.95 102.95L125.675 102.65L125.525 102.025L125 101.9L124.375 102.15L122.825 104.075L122.175 104.525L121.2 104.575L119.975 104.35L119.55 104.225L120.075 103.8L120.175 103.45L120.15 102.65L120.375 102.275L120.7 101.85L120.6 101.675H119.975L119.675 101.55L119.65 101.275L119.825 100.975L120.075 100.75L120.325 100.675H120.7L122.75 100.95L123.45 100.9L124.075 100.475L125.1 101.225L125.5 100.8L126.75 98.7L127.425 97.875L127.95 98.1L128.325 97.8L128.9 96.95L129.275 96.8L129.6 96.825L129.975 96.9L130.475 96.95L131.325 96.65L132.1 96.05L132.875 95.675L133.725 96L134.575 95.45L134.875 95.075L135 94.575L134.9 94.175L134.6 93.55L135.05 93.4L136.1 93.525L136.225 93.425L136.175 93.225L135.775 92.725L135.65 92.375L135.725 91.825L135.95 91.55L137.35 90.975L139 89.85L139.625 89.3L140.1 89.175L140.425 89.225L141 89.45L141.3 89.675L141.65 90.075L142.025 90.65Z" fill="#219C8E" stroke="#1E8B7F" stroke-width="2" stroke-linecap="round" stroke-linejoin="round"/>
<path d="M213.35 86.875L213.275 89.1L213.625 90.675L213.825 91.35L213.9 91.9L213.725 92.575L213.675 93.375L213.925 94.8V95.275L213.875 95.625L213.3 97.65L212.7 101.15L212.575 101.6L212.275 103L212.15 103.35L211.25 104.4L211.025 105.125L211.4 106.375L212.6 108.475L212.7 109.05V109.525L212.45 109.95L211.7 110.325L211.55 110.55L211.45 111.075L211.625 112.6L211.6 113.225L211.35 115.325L211.425 115.85L211.6 116.275L212.175 116.9L212.5 117.325L212.625 117.725L212.9 122.95L213.925 123.125L217.575 122.275L218.65 122.25L219.15 122.45L219.3 123.075L219.125 123.75L219.025 124L218.825 124.95L218.65 125.35L218.2 125.7L217.35 126.25L215.225 128.525L214.525 128.825L214.05 129.25L213.35 132.125L212.9 132.875L212.725 133.3L212.925 133.875L212.975 134.275L212.95 134.95L212.7 135.3L212.025 135.925L211.925 136.2L211.075 136.5L210.1 137.075L209.8 137.85L209.2 138.525L208.45 139.025L207.675 139.25L207.4 139.2L206.3 138.775L205.875 138.825L205.65 139.175L205.45 139.575L205.125 139.825L204.575 139.7L202.425 138.4L200.35 137.45L199.75 137.075L199.325 136.6L198.9 136.2L198.425 135.95L197.825 135.8L196.9 135.425L195.025 134.4L194.1 134.075H193.825L193.175 134.15L192.95 134.125L192.725 133.875V133.4L192.5 133.175L191.975 133.05L191.325 133.15L190.15 133.55L189.475 134L189.25 134.075L188.95 134L188.6 133.7L188.4 133.6L187.75 133.425L189.225 130.25L189.325 129.95L189.35 129.625L189.25 129.2L189.1 128.875L188.55 128.05L188.35 127.65L188.125 126.925L188.1 126.575V124.85L188.025 124.4L187.775 123.7L187.75 123.25L187.95 122.775L188.35 122.275L188.625 122.15H188.925L189.725 122.5L190.425 122.65L191.15 122.35L192.05 121.075L192.85 120.525L194.15 120.125L194.325 119.825L194.425 119.325V118.325L194.2 117.325L193.925 116.45L193.475 116L193.4 115.625L194.225 114.9L195.175 113.775L195.35 113.425L195.125 113.2L194.175 112.6L193.8 112.225L193.6 111.925L193.35 111.75L192.9 111.6L191.9 111.375L190.2 111.4L189.7 111.275V111.05L190.475 109.675L190.625 109.125L190.7 108.7L190.675 108.4L190.375 107.65L190.325 107.1L190.4 106.8L190.675 106.025L191.2 104.85L191.675 104.175L194.4 101.6L195.925 99.875L196.375 99.55L197.375 98.525L197.875 98.325L198.55 98.2L199.25 97.95L199.65 97.675L200 97.225L200.3 96.5L200.6 95.5L200.85 95L201.225 94.375L201.325 94.025L201.25 93.45L201.225 92.725L200.95 91.75L200.775 90V89.05L200.575 88.15L199.65 86.725L199.1 86.15L199.075 84.75L199.275 84.35L199.525 84L199.75 83.525L199.825 83L199.85 82.45L199.925 81.925L200.225 81.55L200.725 81.45L201.125 81.75L201.55 82.15L202.025 82.375L202.475 82.275L203.175 81.65L203.55 81.45L204.1 81.5L204.7 81.725L205.25 82.1L205.7 82.5L205.825 82.9L205.7 83.95L205.925 84.425L206.85 84.75L209.025 84.65L209.875 85.35L210.15 86.175L210.625 86.75L211.3 87.075L212.075 87.15L213 87L213.35 86.875Z" fill="#219C8E" stroke="#1E8B7F" stroke-width="2" stroke-linecap="round" stroke-linejoin="round"/>
<path d="M234.7 91.65L233.975 93.725L233.325 95.125L232.825 95.85L232.475 96.25L232.175 96.425H231.95L231.3 96.05L231.1 96.025L230.85 96.1L230.7 96.35L230.45 97.6L230.1 98.525L229.75 99.15L229.175 99.925L228.85 100.5L228.6 101.05L228.25 102.45L227.95 104.5L227.725 105.375L227.6 106V106.525L227.7 106.925L227.9 107.25L229.725 109.25L229.95 109.425L230.3 109.575L231.65 109.85L234.625 111.075L235.925 111.575L236.4 111.925L236.6 112.375L236.525 112.775L236.325 113L235.875 113.425L235.725 113.7L235.575 114.325L235.425 114.6L234.925 114.95L233.55 115.425L233.175 115.625L232.4 116.225L230.675 118L229.25 119.8L228.65 120.375L229.325 121.35L230 123.35L230.25 123.75L230.525 124.05L231.05 124.325L232.325 124.85L233.825 126.925L234.275 127.85L234.35 128.65L233.675 131.525L233.6 139L233.65 139.525L233.8 139.975L233.05 140.575L231.9 141.075L230.825 140.775L228.625 139.525L227.7 139.35L226.675 139.4L225.7 139.675L224.825 140.2L224.475 140.7L223.9 141.925L223.55 142.25L223.125 142.175L221.825 141.6L221.425 141.35L221.15 140.9L220.95 140.375L220.625 140.05L219.7 140.35L218.05 140.525L217.175 140.175L216.475 139.225L215.95 138.075L215.65 137.075L215.3 135.375L215.275 134.8L215.175 134.15L214.825 134.175L214.375 134.525L213.45 135.5L213.075 135.8L211.925 136.2L212.025 135.925L212.7 135.3L212.95 134.95L212.975 134.275L212.925 133.875L212.725 133.3L212.9 132.875L213.35 132.125L214.05 129.25L214.525 128.825L215.225 128.525L217.35 126.25L218.2 125.7L218.65 125.35L218.825 124.95L219.025 124L219.125 123.75L219.3 123.075L219.15 122.45L218.65 122.25L217.575 122.275L213.925 123.125L212.9 122.95L212.625 117.725L212.5 117.325L212.175 116.9L211.6 116.275L211.425 115.85L211.35 115.325L211.6 113.225L211.625 112.6L211.45 111.075L211.55 110.55L211.7 110.325L212.45 109.95L212.7 109.525V109.05L212.6 108.475L211.4 106.375L211.025 105.125L211.25 104.4L212.15 103.35L212.275 103L212.575 101.6L212.7 101.15L213.3 97.65L213.875 95.625L213.925 95.275V94.8L213.675 93.375L213.725 92.575L213.9 91.9L213.825 91.35L213.625 90.675L213.275 89.1L213.35 86.875L213.575 86.825L214.075 86.85L214.85 87.325L215.8 88.35L217.475 90.55L218.675 91.2L219.5 91.25L221.05 91.075L222.825 91.55L223.525 91.1L224.2 90.5L225.075 90.175L225.725 90.4L225.575 90.85L225.225 91.45V91.975L225.775 91.95L228.5 91.175L229.675 90.875L230.2 90.825L230.825 91L230.95 91.175L231.225 91.725L231.5 91.925L232 91.95L232.95 91.425L233.4 91.275L234.15 91.425L234.7 91.65Z" fill="#219C8E" stroke="#1E8B7F" stroke-width="2" stroke-linecap="round" stroke-linejoin="round"/>
<path d="M233.8 139.975L233.65 139.525L233.6 139L233.675 131.525L234.35 128.65L234.275 127.85L233.825 126.925L232.325 124.85L231.05 124.325L230.525 124.05L230.25 123.75L230 123.35L229.325 121.35L228.65 120.375L229.25 119.8L230.675 118L232.4 116.225L233.175 115.625L233.55 115.425L234.925 114.95L235.425 114.6L235.575 114.325L235.725 113.7L235.875 113.425L236.325 113L236.525 112.775L236.6 112.375L236.4 111.925L235.925 111.575L234.625 111.075L231.65 109.85L230.3 109.575L229.95 109.425L229.725 109.25L227.9 107.25L227.7 106.925L227.6 106.525V106L227.725 105.375L227.95 104.5L228.25 102.45L228.6 101.05L228.85 100.5L229.175 99.925L229.75 99.15L230.1 98.525L230.45 97.6L230.7 96.35L230.85 96.1L231.1 96.025L231.3 96.05L231.95 96.425H232.175L232.475 96.25L232.825 95.85L233.325 95.125L233.975 93.725L234.7 91.65L235.375 91.9L236.2 91.825L237.1 91.4L237.825 90.725L238.4 89.9L238.875 88.95L239.225 88.4L239.55 88.35L240.15 88.675L242.55 88.8L242.875 88.9L243.525 89.225L243.9 89.3L244.325 89.225L245.125 88.9L245.475 88.875L246.175 89.1L247.5 89.825L248.95 90.175L249.35 90.325L249.625 90.525L249.675 90.95L249.3 91.575L249.45 93L249.15 93.875L248.7 94.775L247.975 97.65L246.05 100.925L245.275 102.675L245.25 103.025L245.275 103.375L245.425 104.05L245.775 104.475L245.85 104.625L245.775 104.925L245.475 105.3L245.35 105.525L245.1 106.325L245.025 106.7L245.05 107.175L245.175 107.55L245.575 108.225L245.65 108.625L245.45 109.45L244.25 112.2L244.125 114.625L243.675 115.625L243.625 115.925L243.675 116.2L243.825 116.45L244.3 116.925L244.85 118.15L245.4 118.525L245.875 118.725L246.275 119.1L246.925 120.025L247.525 121.125L248 122.325L248.25 122.875L248.95 123.925L249.2 124.45L249.325 125.05L249.45 126.525L249.7 127.875L249.75 128.525L249.7 129.175L249.575 129.875L249.05 131.375L247.675 134.1L247.025 136.3L247 136.65L247.1 137.075L246.85 138.475L245.925 140.125L244.775 141.35L243.825 141.475L243.375 141.05L242.4 140.45L241.95 140.05L241.775 139.725L241.575 139.125L241.35 138.85L240.6 138.25L240.575 138.1L240.025 138.25L239.1 139.05H238.575L238 138.75L237.475 138.575L237.1 138.725L236.875 139.45L236.675 139.975L236.225 140.2L235.7 140.125L235.3 139.775L234.8 139.5L234.125 139.725L233.8 139.975Z" fill="#219C8E" stroke="#1E8B7F" stroke-width="2" stroke-linecap="round" stroke-linejoin="round"/>
<path d="M95.825 59.475L95.675 60.475L95.325 61.175L94.325 62.6L92.7 63.325L91.075 63.775L90.35 64.125L90 64.4L90.1 64.65L90.425 65.075L90.525 65.3L90.55 65.6L90.4 65.95L90.15 66.075L89.825 66.05L89.45 66.1L88.95 66.3L88.425 66.8L88.25 67.175V67.425L88.625 67.75L87.9 68.9L88.075 69.225L88.375 69.5L88.75 70.35L89 70.65L89.4 71.05L89.625 71.3L89.95 72.25L92.775 74.475L93.475 75.125L93.875 75.675L94.025 76.625L93.625 77.1L92.25 77.75L91.85 78.1L91.625 78.45L91.6 78.8L91.725 79.15L92.3 79.925L92.425 80.25L92.475 80.675L92.325 80.95L92.075 81.2L91.275 81.925L90.875 83.125L90.725 84.05L90.425 85.15L90.525 85.7L90.725 86.05L91.2 86.45L91.4 87.025L91.075 87.4L90.075 87.75L89.175 88.3L88.8 88.425L88.425 88.5L88.025 88.475L87.3 88.325L86.575 88.55L85.2 89.75L84.15 90.9L84 91.25L84.375 91.525L85.8 92.2L86.5 92.925L85.175 93.375L83.65 93.225L83.175 93.275L82.6 93.475L82.05 93.8L81.775 94.2L81.575 94.6L81.3 95.7L80.625 95.425L76.775 96.425L74.15 96.725L72.95 96.35L71.3 94.675L68.925 93.475L65.275 90.425L63.925 89.9L63.4 89.6L62.825 88.975L62.175 88.45L62.325 88.05L63.275 87.125L63.6 86.95L64.325 87.025H64.6L65.225 86.9L65.725 86.625L66.025 86.3L66.125 85.95L66.175 85.2V84.625L66.025 84.175L65.775 83.725L64.375 82.475L64.125 82.3L63.325 82.175L63.125 81.975L62.625 81.3L62.35 81.05L61.4 80.275L61.15 79.975L61.05 79.6L61.075 79.275L61.5 78.625L61.925 77.375L63.55 76.525L62.875 75.425L62.525 74.65L61.9 73.925L60.05 73.15L59.85 72.825V71.55L59.725 71.15L59.375 70.625L59.275 70.325L59.3 70.075L59.525 69.775L59.8 69.625L60.575 69.325L60.9 69.025L61.1 68.65L61.225 68.175L61.2 67.425L61.075 66.9L60.575 65.85L60.55 65.55L60.675 65L60.875 64.5L61.975 63.15L63.35 63.725L63.775 63.825L64.225 63.875L65.55 63.825L66.325 63.4L66.95 62.15L67.325 61.65L67.9 61.325L68.275 61L68.9 60.35L70.025 58.675L70.375 58.35L72.125 57.225L75.475 54.575L75.85 54.1L76.125 53.5L76.25 53L76.625 52.075L78.05 50.8L79.825 51.35L80.225 51.575L80.75 52.025L81.95 53.275L82.1 53.55L82.2 54L82.175 55L82.225 55.35L82.425 55.65L83.85 56.65L84.3 56.8L84.825 56.725L85.15 56.6L85.55 56.55L87.125 56.7L88.975 56.575L89.425 56.65L90.05 56.875L94.625 59.2L95.825 59.475Z" fill="#219C8E" stroke="#1E8B7F" stroke-width="2" stroke-linecap="round" stroke-linejoin="round"/>
</g>
<defs>
<clipPath id="clip0_4_9">
<rect width="250" height="142.5" fill="white"/>
</clipPath>
</defs>
</svg>
