<svg width="20" height="20" viewBox="0 0 20 20" fill="none" xmlns="http://www.w3.org/2000/svg">
<path d="M17.865 9.11563L15.915 7.94563C15.4295 7.65403 14.8738 7.49999 14.3075 7.5H4.86313L4.475 5.94688C4.4076 5.67634 4.25161 5.43615 4.03188 5.26455C3.81214 5.09295 3.5413 4.99982 3.2625 5H2.5C2.16858 5.00033 1.85083 5.13213 1.61648 5.36648C1.38213 5.60083 1.25033 5.91858 1.25 6.25V10.625C1.2505 11.1221 1.4482 11.5988 1.79972 11.9503C2.15125 12.3018 2.62787 12.4995 3.125 12.5H7.5V16.25C7.50033 16.5814 7.63213 16.8992 7.86648 17.1335C8.10083 17.3679 8.41858 17.4997 8.75 17.5H9.56688C9.8212 17.4992 10.0693 17.4213 10.2783 17.2764C10.4874 17.1315 10.6475 16.9266 10.7375 16.6887L12.3081 12.5H16.9281C17.3267 12.5001 17.7142 12.3696 18.0315 12.1284C18.3487 11.8871 18.5781 11.5485 18.6845 11.1645C18.7908 10.7804 18.7684 10.3721 18.6205 10.002C18.4726 9.63194 18.2074 9.32057 17.8656 9.11563H17.865ZM16.9275 11.25H11.4419L9.56688 16.25H8.75V11.25H3.125C2.95924 11.25 2.80027 11.1842 2.68306 11.0669C2.56585 10.9497 2.5 10.7908 2.5 10.625V6.25H3.2625L3.8875 8.75H6.25V10H7.5V8.75H9.375V10H10.625V8.75H12.5V10H13.75V8.75H14.3075C14.6473 8.75008 14.9806 8.84255 15.2719 9.0175L17.2219 10.1875C17.3292 10.2518 17.4125 10.3495 17.459 10.4656C17.5055 10.5818 17.5126 10.7099 17.4793 10.8305C17.4459 10.9511 17.374 11.0574 17.2744 11.1332C17.1749 11.2089 17.0532 11.25 16.9281 11.25H16.9275Z" fill="black"/>
<path d="M8.75 2.50001H9.57687L11.0769 6.25001H12.4231L10.7375 2.03563C10.6454 1.8032 10.4854 1.60392 10.2784 1.46378C10.0713 1.32363 9.82688 1.24914 9.57687 1.25001H8.75C8.41858 1.25034 8.10083 1.38214 7.86648 1.61649C7.63213 1.85084 7.50033 2.16859 7.5 2.50001V6.25001H8.75V2.50001Z" fill="black"/>
</svg>
